<svg aria-hidden="true" style="position: absolute; width: 0; height: 0; overflow: hidden;" version="1.1" xmlns="http://www.w3.org/2000/svg" xmlns:xlink="http://www.w3.org/1999/xlink">
<defs>
<symbol id="point" viewBox="0 0 20 32">
<path d="M10 0.018c-5.524 0-10 4.458-10 9.98 0 9.548 10 22 10 22s10-12.454 10-22c0-5.52-4.476-9.98-10-9.98zM10 15.518c-2.982 0-5.4-2.418-5.4-5.4s2.418-5.4 5.4-5.4v0c2.982 0 5.4 2.418 5.4 5.4s-2.418 5.4-5.4 5.4v0z"></path>
</symbol>
<symbol id="phone" viewBox="0 0 19 32">
<path d="M15.6 0c1.988 0 3.6 1.612 3.6 3.6v0 24.8c0 1.988-1.612 3.6-3.6 3.6v0h-12c-1.988 0-3.6-1.612-3.6-3.6v0-24.8c0-1.988 1.612-3.6 3.6-3.6v0h12zM15.6 2.4h-12c-0.663 0-1.2 0.537-1.2 1.2v0 24.8c0 0.662 0.538 1.2 1.2 1.2h12c0.663 0 1.2-0.537 1.2-1.2v0-24.8c0-0.663-0.537-1.2-1.2-1.2v0zM11.598 24.8c0 0 0.001 0 0.002 0 0.663 0 1.2 0.537 1.2 1.2s-0.536 1.199-1.198 1.2l-4 0.006c-0 0-0.001 0-0.002 0-0.663 0-1.2-0.537-1.2-1.2s0.536-1.199 1.198-1.2l4-0.006z"></path>
</symbol>
</defs>
</svg>
